<?xml version="1.0" standalone="no"?>
<!DOCTYPE svg PUBLIC "-//W3C//DTD SVG 20010904//EN"
 "http://www.w3.org/TR/2001/REC-SVG-20010904/DTD/svg10.dtd">
<svg version="1.0" xmlns="http://www.w3.org/2000/svg"
 width="700.000000pt" height="700.000000pt" viewBox="0 0 700.000000 700.000000"
 preserveAspectRatio="xMidYMid meet">
<metadata>
Created by potrace 1.11, written by Peter Selinger 2001-2013
</metadata>
<g transform="translate(0.000000,700.000000) scale(0.100000,-0.100000)"
fill="#000000" stroke="none">
<path d="M167 5593 c15 -27 44 -76 65 -111 21 -34 38 -64 38 -67 0 -3 17 -33
38 -67 21 -35 50 -83 64 -108 14 -25 100 -173 190 -330 91 -157 173 -298 182
-315 9 -16 25 -43 35 -60 21 -34 190 -327 229 -395 14 -25 42 -74 64 -109 21
-34 38 -64 38 -66 0 -2 27 -49 60 -105 33 -56 60 -103 60 -105 0 -3 63 -111
120 -205 5 -8 18 -31 28 -50 11 -19 99 -172 196 -339 97 -167 176 -307 176
-312 0 -5 5 -9 10 -9 6 0 10 -4 10 -9 0 -9 390 -690 421 -733 10 -15 19 -29
19 -32 0 -2 38 -70 85 -151 47 -80 96 -165 109 -188 13 -23 47 -82 76 -132 29
-49 60 -103 70 -120 9 -16 50 -86 90 -155 39 -69 88 -153 108 -187 20 -35 39
-63 42 -63 3 0 34 48 69 108 292 493 416 702 432 730 l19 32 -261 448 c-144
246 -269 461 -279 477 -9 17 -81 140 -160 275 -78 135 -156 270 -172 300 -17
30 -34 60 -38 65 -6 8 -88 148 -210 360 -9 17 -50 86 -90 155 -40 68 -81 138
-90 155 -10 16 -57 98 -105 180 -48 83 -139 240 -202 350 -64 110 -153 263
-198 340 -44 77 -84 147 -88 155 -4 8 -63 110 -131 225 l-124 210 -511 3 -512
2 28 -47z"/>
<path d="M1568 5608 c11 -18 187 -321 392 -673 204 -352 386 -665 405 -695 28
-48 127 -217 595 -1025 48 -82 143 -244 210 -360 166 -284 587 -1009 609
-1048 10 -18 41 -70 68 -117 28 -47 119 -204 203 -350 84 -146 157 -271 163
-278 7 -9 25 15 68 89 33 56 59 103 59 105 0 2 302 527 320 554 5 8 26 44 46
80 50 87 210 363 235 403 10 18 22 39 26 47 4 8 27 49 51 90 25 41 56 95 70
120 28 49 321 556 382 660 83 142 444 767 460 795 8 17 23 41 31 55 13 21 126
215 230 396 103 178 232 402 239 414 12 19 102 174 127 220 11 19 43 74 72
122 28 48 51 91 51 97 0 6 5 11 10 11 6 0 10 4 10 10 0 9 32 66 136 240 l33
55 -377 7 c-207 4 -788 7 -1291 5 l-913 -2 -86 -140 c-47 -77 -99 -165 -117
-195 -18 -30 -145 -243 -284 -473 l-251 -418 35 -60 c19 -33 35 -63 35 -66 0
-4 6 -14 14 -22 7 -9 29 -45 48 -81 19 -36 80 -144 135 -240 55 -96 110 -193
122 -215 12 -22 35 -62 51 -90 17 -27 35 -60 42 -72 6 -13 14 -23 18 -23 4 0
60 89 124 198 65 108 151 253 192 320 41 68 74 125 74 126 0 1 76 128 168 282
l168 279 277 3 c261 2 276 1 270 -15 -3 -10 -12 -25 -18 -33 -7 -8 -26 -40
-42 -70 -17 -30 -47 -84 -68 -120 -20 -36 -46 -81 -57 -100 -11 -19 -81 -141
-156 -270 -74 -129 -142 -248 -152 -265 -9 -16 -45 -79 -80 -140 -34 -60 -76
-135 -93 -165 -16 -30 -38 -67 -49 -82 -10 -14 -18 -28 -18 -31 0 -3 -20 -40
-45 -81 -25 -42 -45 -81 -45 -86 0 -6 -4 -10 -8 -10 -4 0 -13 -12 -20 -27 -6
-16 -20 -41 -30 -58 -20 -32 -53 -90 -109 -190 -19 -33 -47 -82 -64 -110 -16
-27 -35 -60 -41 -72 -10 -20 -33 16 -241 375 -126 218 -237 411 -247 427 -9
17 -51 89 -92 160 -42 72 -85 146 -96 165 -11 19 -52 91 -92 160 -40 69 -83
143 -95 165 -13 22 -46 81 -75 130 -29 50 -64 110 -78 135 -14 25 -57 99 -95
165 -116 199 -167 288 -167 290 0 1 -29 52 -64 113 -36 61 -76 131 -89 154
-13 24 -67 117 -119 208 l-96 165 -517 3 -517 2 20 -32z"/>
</g>
</svg>
