<svg width="55" height="39" viewBox="0 0 55 39" fill="none" xmlns="http://www.w3.org/2000/svg">
<path d="M25.8 31L21.6 38.2L0 0.899994H8.3C14.1 11 20 21 25.8 31Z" fill="white"/>
<path d="M33.2 38.2L11.4 0.899994C14.2 0.899994 17 0.899994 19.8 0.899994C25.6 10.9 31.5 21 37.3 31L33.2 38.2Z" fill="white"/>
<path d="M33.2 38.2L54.8 0.899994C52 0.899994 49.2 0.899994 46.4 0.899994C40.6 10.9 34.9 21 29.1 31L33.2 38.2Z" fill="white"/>
<path d="M31.9 18.1L42.1 0.899994H33.8L27.8 10.9L31.9 18.1Z" fill="white"/>
<path d="M50.5 0.899994H34.5V8.09999H50.5V0.899994Z" fill="white"/>
</svg>
