<svg width="136" height="85" viewBox="0 0 136 85" fill="none" xmlns="http://www.w3.org/2000/svg">
<path d="M24.52 54.72C24.52 54.8267 24.6533 55.0933 24.92 55.52C25.6667 56.6933 26.04 58.5067 26.04 60.96C26.04 63.4133 24.76 66.5867 22.2 70.48C19.6933 74.4267 16.7867 77.8133 13.48 80.64C10.12 83.52 7.37333 84.96 5.24 84.96C2.57333 84.96 0.893332 82.56 0.199998 77.76C0.199998 71.1467 5.02667 62.4 14.68 51.52L58.28 2.16C58.6 1.09333 59.4 0.559997 60.68 0.559997C62.6533 0.559997 63.96 0.799997 64.6 1.28C65.24 1.76 65.56 2.34666 65.56 3.04C65.56 3.68 65 4.64 63.88 5.92L24.84 48.56C24.8933 48.6133 25.0533 48.64 25.32 48.64C25.64 48.64 25.96 48.56 26.28 48.4C36.1467 43.12 45.8533 36.9333 55.4 29.84C55.88 30.2133 56.12 30.6667 56.12 31.2C56.12 31.7333 55.8533 32.24 55.32 32.72C54.84 33.2 54.1467 33.8933 53.24 34.8C52.3333 35.6533 50.5733 37.2533 47.96 39.6C45.3467 41.8933 42.8133 44 40.36 45.92C37.96 47.7867 35.2667 49.6 32.28 51.36C29.2933 53.12 26.7067 54.24 24.52 54.72ZM5.72 77.92C7.10667 77.92 9.18667 76.56 11.96 73.84C14.7333 71.12 17.24 68.0533 19.48 64.64C21.72 61.2267 22.84 58.6133 22.84 56.8C22.84 55.04 22.28 54.16 21.16 54.16C20.68 54.16 20.12 54.4267 19.48 54.96C16.92 57.4133 14.4667 60.4533 12.12 64.08C9.77333 67.7067 8.04 70.72 6.92 73.12C5.8 75.52 5.24 76.9067 5.24 77.28C5.24 77.7067 5.4 77.92 5.72 77.92ZM45.7025 59.6C45.8358 59.7333 45.9025 59.84 45.9025 59.92C45.9025 60 45.8225 60.0667 45.6625 60.12C45.5025 60.2 45.3825 60.24 45.3025 60.24C44.0758 60.24 43.0225 59.7067 42.1425 58.64C40.5425 56.7467 39.7425 54.36 39.7425 51.48C39.7425 48.6 40.3958 45.72 41.7025 42.84C43.0092 39.9333 44.6492 37.4 46.6225 35.24C48.6225 33.0533 50.8358 31.2667 53.2625 29.88C55.7158 28.4933 58.0358 27.8 60.2225 27.8C60.4625 27.8 60.5825 27.96 60.5825 28.28C60.5825 28.5733 60.4492 28.84 60.1825 29.08C57.3025 30.28 54.7158 31.8667 52.4225 33.84C50.1558 35.8133 48.3692 37.9067 47.0625 40.12C44.3958 44.6267 43.0625 48.8933 43.0625 52.92C43.0625 56.3867 43.9425 58.6133 45.7025 59.6ZM56.6344 50.84C56.6344 51.4 56.9144 51.68 57.4744 51.68C59.2877 51.68 63.9544 49 71.4744 43.64C71.7677 43.4267 72.2077 43.1067 72.7944 42.68C73.4077 42.2533 73.7677 42 73.8744 41.92C74.1144 42.1067 74.2344 42.3333 74.2344 42.6C74.2344 42.8667 74.1144 43.1067 73.8744 43.32C71.901 45.2933 68.8344 47.68 64.6744 50.48C60.541 53.28 57.741 54.68 56.2744 54.68C54.461 54.68 53.5544 53.5067 53.5544 51.16C53.421 51.2133 52.941 51.4933 52.1144 52C49.901 53.4133 48.4744 54.12 47.8344 54.12C47.541 54.12 47.2744 54 47.0344 53.76C46.7677 53.4933 46.6344 53.1867 46.6344 52.84C46.6344 52.4667 46.8744 52.16 47.3544 51.92C47.8077 51.68 48.6744 51.2933 49.9544 50.76C51.2344 50.2 52.5144 49.48 53.7944 48.6C53.821 48.52 53.8477 48.3467 53.8744 48.08C53.901 47.8133 53.9544 47.5733 54.0344 47.36C54.2744 46.5067 54.701 45.44 55.3144 44.16C55.3144 44.08 55.261 44.04 55.1544 44.04C54.461 44.04 54.1144 43.9333 54.1144 43.72C54.1144 43.5867 54.2744 43.4267 54.5944 43.24C55.2877 42.84 55.9544 42.2133 56.5944 41.36C57.2077 40.7467 58.1677 40.4 59.4744 40.32C59.901 40.32 60.1144 40.4667 60.1144 40.76C60.1144 41.1333 59.7677 41.72 59.0744 42.52C58.221 44.0133 57.7944 45 57.7944 45.48C57.7944 45.5333 57.821 45.56 57.8744 45.56C58.301 45.56 59.6077 44.9067 61.7944 43.6C63.981 42.2933 65.1944 41.5067 65.4344 41.24C65.701 40.9733 65.901 40.84 66.0344 40.84C66.1944 40.84 66.3677 40.9733 66.5544 41.24C66.741 41.48 66.8344 41.6933 66.8344 41.88C66.8344 42.04 66.7544 42.1867 66.5944 42.32C66.4344 42.4533 65.741 42.96 64.5144 43.84C60.2477 46.8533 57.6877 48.6667 56.8344 49.28C56.8077 49.3867 56.781 49.5333 56.7544 49.72L56.6744 50.16C56.6477 50.4267 56.6344 50.6533 56.6344 50.84ZM68.7094 50.6C68.976 50.6 69.1494 50.6533 69.2294 50.76C69.6027 51.2133 69.7894 51.5733 69.7894 51.84C69.7894 52.3467 69.2827 53.1867 68.2694 54.36C66.856 55.9867 65.936 56.8 65.5094 56.8C65.4294 56.8 65.3894 56.76 65.3894 56.68C65.3894 56.6 65.4427 56.48 65.5494 56.32C65.9494 55.7867 66.216 55.4 66.3494 55.16L66.5894 54.76C66.1894 54.8933 65.8694 54.96 65.6294 54.96C65.1494 54.88 64.9094 54.5867 64.9094 54.08C64.9094 53.28 65.3894 52.5067 66.3494 51.76C67.3094 50.9867 68.096 50.6 68.7094 50.6ZM84.3084 41.08C85.5618 41.2133 86.1884 41.4933 86.1884 41.92C86.1884 42.1067 86.0818 42.32 85.8684 42.56C82.1084 46.7467 77.7884 52.08 72.9084 58.56C71.4951 60.48 70.0551 62.2933 68.5884 64C67.1218 65.7067 65.7484 66.9467 64.4684 67.72C63.1884 68.52 61.8551 68.92 60.4684 68.92C59.7751 68.92 59.1618 68.7333 58.6284 68.36C58.0951 67.9867 57.8284 67.48 57.8284 66.84C57.8284 65.3467 58.5484 63.8 59.9884 62.2C61.4284 60.6 63.0418 59.2933 64.8284 58.28C66.6151 57.2933 68.1618 56.72 69.4684 56.56L70.3084 56.68C70.5751 56.6533 71.5484 55.6267 73.2284 53.6C74.9351 51.5733 75.7884 50.5067 75.7884 50.4C75.8151 50.2667 75.8018 50.2 75.7484 50.2L74.9884 50.8C72.9884 52.6667 71.4284 53.6 70.3084 53.6C69.5884 53.6 69.2284 53.0933 69.2284 52.08C69.2284 50.72 70.3351 48.5733 72.5484 45.64C74.7618 42.7067 76.3884 41.24 77.4284 41.24C77.5084 41.24 77.6018 41.2667 77.7084 41.32C78.4551 41.5067 78.8284 41.7733 78.8284 42.12C78.8284 42.2533 78.7884 42.36 78.7084 42.44C78.6551 42.4933 78.3884 42.7467 77.9084 43.2C77.4551 43.6533 77.0018 44.1333 76.5484 44.64C76.0951 45.12 75.6151 45.6533 75.1084 46.24C73.9618 47.5733 73.3884 48.5733 73.3884 49.24C73.3884 49.4 73.4684 49.48 73.6284 49.48C73.8151 49.48 74.1484 49.3333 74.6284 49.04C78.4151 46.4533 81.3751 43.9867 83.5084 41.64C83.6951 41.2667 83.9618 41.08 84.3084 41.08ZM59.9084 67.16C60.8418 66.8667 62.0951 65.9467 63.6684 64.4C65.2418 62.88 66.5884 61.44 67.7084 60.08L69.3884 58C69.5484 57.7867 69.6284 57.6533 69.6284 57.6C69.6284 57.5467 69.5884 57.52 69.5084 57.52C68.6551 57.52 67.4418 58.1733 65.8684 59.48C64.2684 60.7867 62.8551 62.2133 61.6284 63.76C60.3751 65.3067 59.7484 66.4 59.7484 67.04C59.7484 67.12 59.8018 67.16 59.9084 67.16ZM85.3125 50.6C85.5792 50.6 85.7525 50.6533 85.8325 50.76C86.2058 51.2133 86.3925 51.5733 86.3925 51.84C86.3925 52.3467 85.8858 53.1867 84.8725 54.36C83.4592 55.9867 82.5392 56.8 82.1125 56.8C82.0325 56.8 81.9925 56.76 81.9925 56.68C81.9925 56.6 82.0458 56.48 82.1525 56.32C82.5525 55.7867 82.8192 55.4 82.9525 55.16L83.1925 54.76C82.7925 54.8933 82.4725 54.96 82.2325 54.96C81.7525 54.88 81.5125 54.5867 81.5125 54.08C81.5125 53.28 81.9925 52.5067 82.9525 51.76C83.9125 50.9867 84.6992 50.6 85.3125 50.6ZM97.6316 43.6L97.4716 43.64C95.0182 44.12 93.6582 44.36 93.3916 44.36C93.1516 44.36 92.9116 44.24 92.6716 44C91.9249 42.9333 91.5516 42.2133 91.5516 41.84C91.5516 41.44 91.7649 41.1867 92.1916 41.08C94.5116 40.5733 96.4182 40.32 97.9116 40.32C99.4316 40.32 100.352 40.4933 100.672 40.84C101.658 41.8267 102.152 42.4267 102.152 42.64C102.152 42.8533 102.018 43.04 101.752 43.2C99.6716 44.2933 97.5249 45.5733 95.3116 47.04C93.1249 48.48 91.6316 49.64 90.8316 50.52C90.8316 50.5467 90.8982 50.56 91.0316 50.56C91.1916 50.56 91.7782 50.4133 92.7916 50.12C93.8316 49.8 94.7782 49.64 95.6316 49.64C96.4849 49.64 97.0582 49.7867 97.3516 50.08C98.7116 51.6533 99.3916 52.72 99.3916 53.28C99.3916 53.4933 99.2849 53.6 99.0716 53.6C98.9382 53.6 98.6982 53.48 98.3516 53.24C98.0316 53 97.6316 52.88 97.1516 52.88C96.6716 52.88 96.2716 52.9333 95.9516 53.04C92.8582 53.9467 90.3782 54.4 88.5116 54.4C88.2182 54.4 87.8049 54.1333 87.2716 53.6C86.7382 53.04 86.4716 52.4933 86.4716 51.96C86.4716 51.1067 87.0582 50.2267 88.2316 49.32C89.4049 48.3867 91.0849 47.3333 93.2716 46.16C95.8582 44.7733 97.3116 43.92 97.6316 43.6ZM103.439 50.6C103.706 50.6 103.879 50.6533 103.959 50.76C104.332 51.2133 104.519 51.5733 104.519 51.84C104.519 52.3467 104.012 53.1867 102.999 54.36C101.586 55.9867 100.666 56.8 100.239 56.8C100.159 56.8 100.119 56.76 100.119 56.68C100.119 56.6 100.172 56.48 100.279 56.32C100.679 55.7867 100.946 55.4 101.079 55.16L101.319 54.76C100.919 54.8933 100.599 54.96 100.359 54.96C99.8791 54.88 99.6391 54.5867 99.6391 54.08C99.6391 53.28 100.119 52.5067 101.079 51.76C102.039 50.9867 102.826 50.6 103.439 50.6ZM122.238 35.52L124.278 35.48C126.918 35.48 128.838 35.8533 130.038 36.6C130.625 36.7867 130.918 37.0267 130.918 37.32C130.918 37.5333 130.651 37.68 130.118 37.76C129.611 37.84 127.811 38.0533 124.718 38.4C121.651 38.72 119.545 38.9067 118.398 38.96C117.891 38.9867 116.718 39.8667 114.878 41.6C113.065 43.3333 111.331 45.24 109.678 47.32C108.025 49.4 107.198 50.8533 107.198 51.68C107.198 51.8133 107.265 51.9333 107.398 52.04C107.531 52.12 107.691 52.16 107.878 52.16C108.091 52.16 108.411 52.08 108.838 51.92C113.905 48.9333 118.825 45.6667 123.598 42.12C123.838 42.3067 123.958 42.5333 123.958 42.8C123.958 43.0667 123.825 43.3333 123.558 43.6C123.291 43.84 122.891 44.2 122.358 44.68C121.851 45.16 120.891 46.0267 119.478 47.28C118.065 48.5333 116.731 49.6533 115.478 50.64C112.118 53.36 109.771 54.9333 108.438 55.36C107.958 55.4933 107.385 55.56 106.718 55.56C106.078 55.56 105.478 55.2267 104.918 54.56C104.385 53.8933 104.118 52.9867 104.118 51.84C104.118 50.6933 104.851 49.04 106.318 46.88C107.811 44.72 109.838 42.5067 112.398 40.24C112.638 40.0533 112.758 39.88 112.758 39.72C112.758 39.56 112.478 39.48 111.918 39.48L109.398 39.56C105.851 39.56 104.025 39.16 103.918 38.36C103.091 38.2 102.678 37.96 102.678 37.64C102.678 37.5333 102.731 37.48 102.838 37.48C102.945 37.4533 103.038 37.44 103.118 37.44C103.198 37.4133 103.331 37.3867 103.518 37.36C103.705 37.3333 105.171 37.12 107.918 36.72C110.691 36.32 113.838 35.9867 117.358 35.72L120.118 32.04C120.278 31.72 120.838 31.56 121.798 31.56C122.758 31.56 123.238 31.76 123.238 32.16C123.238 32.2933 123.131 32.5333 122.918 32.88L121.918 34.28C121.785 34.7067 121.705 35.0267 121.678 35.24C121.678 35.4267 121.865 35.52 122.238 35.52ZM129.697 28.4C129.564 28.2667 129.497 28.16 129.497 28.08C129.497 28 129.577 27.9333 129.737 27.88C129.897 27.8 130.017 27.76 130.097 27.76C131.324 27.76 132.377 28.2933 133.257 29.36C134.857 31.2533 135.657 33.64 135.657 36.52C135.657 39.4 135.004 42.2933 133.697 45.2C132.391 48.08 130.737 50.6133 128.737 52.8C126.764 54.96 124.551 56.7333 122.097 58.12C119.671 59.5067 117.364 60.2 115.177 60.2C114.937 60.2 114.817 60.04 114.817 59.72C114.817 59.4267 114.951 59.16 115.217 58.92C118.097 57.72 120.671 56.1333 122.937 54.16C125.231 52.1867 127.031 50.0933 128.337 47.88C131.004 43.3733 132.337 39.1067 132.337 35.08C132.337 31.6133 131.457 29.3867 129.697 28.4Z" fill="#474747"/>
</svg>
