<svg width="380" height="310" viewBox="0 0 380 310" fill="none" xmlns="http://www.w3.org/2000/svg">
<path d="M274.705 130.75L218.977 250.826L66.7274 162.924L274.705 130.75Z" fill="#BABABA"/>
<path d="M75.261 165.212L143.293 52.7178L273.48 131.804L75.261 165.212Z" fill="#A3A3A3"/>
<path d="M142.631 51.192L218.814 250.403L66.9534 163.055L142.631 51.192Z" fill="#C4C4C4"/>
<path d="M329.2 106.52C329.387 106.68 329.48 106.88 329.48 107.12C329.48 107.333 329.4 107.52 329.24 107.68L324.64 112.64C320.213 117.84 315.227 124.347 309.68 132.16C308.267 134.533 305.84 137.44 302.4 140.88C300.587 142.72 298.56 144.28 296.32 145.56C294.107 146.84 292.053 147.48 290.16 147.48C289.76 147.48 289.307 147.24 288.8 146.76C288.293 146.28 288.04 145.6 288.04 144.72C288.04 143.547 288.827 142.173 290.4 140.6C291.947 139.053 293.773 137.733 295.88 136.64C297.987 135.547 299.773 135 301.24 135H301.4C306.44 129.16 309.547 125.587 310.72 124.28L317.08 117.28C317.107 117.253 317.133 117.213 317.16 117.16C317.213 117.107 317.293 117.013 317.4 116.88C317.613 116.613 317.693 116.48 317.64 116.48C317.587 116.48 317.36 116.667 316.96 117.04L311.16 122.72C304.12 129.627 298.987 133.08 295.76 133.08C294.987 133.08 294.24 132.773 293.52 132.16C292.827 131.547 292.48 130.68 292.48 129.56C292.48 127.427 294.44 124.4 298.36 120.48L309.04 110.96C310.32 109.76 310.96 108.973 310.96 108.6C310.96 108.493 310.88 108.44 310.72 108.44C310.56 108.44 310.173 108.493 309.56 108.6C308.947 108.707 307.987 108.973 306.68 109.4C305.4 109.8 304.04 110.32 302.6 110.96C301.187 111.6 299.547 112.533 297.68 113.76C295.84 114.987 294.08 116.373 292.4 117.92C292.133 118.293 291.84 118.48 291.52 118.48H291.4C291.293 118.453 291.24 118.387 291.24 118.28C291.24 118.013 291.44 117.68 291.84 117.28C294.213 113.867 297.053 111.08 300.36 108.92C303.667 106.76 306.64 105.68 309.28 105.68C310.4 105.68 311.427 105.987 312.36 106.6C313.293 107.187 313.76 108.187 313.76 109.6C313.76 110.587 313.16 111.853 311.96 113.4C310.76 114.92 309.293 116.467 307.56 118.04C305.853 119.613 304.133 121.147 302.4 122.64C298.267 126.24 296.2 128.587 296.2 129.68C296.2 129.733 296.32 129.76 296.56 129.76C296.827 129.76 297.36 129.56 298.16 129.16C298.987 128.76 299.947 128.187 301.04 127.44C302.133 126.693 303.213 125.933 304.28 125.16C305.373 124.36 306.573 123.44 307.88 122.4C309.213 121.36 310.333 120.48 311.24 119.76C313.747 117.76 315.387 116.427 316.16 115.76L324.64 108.52L327 106.2C327.267 105.907 327.52 105.76 327.76 105.76C328 105.76 328.173 105.8 328.28 105.88L329.2 106.52ZM300.36 136.04C300.573 135.827 300.68 135.693 300.68 135.64C300.68 135.613 300.653 135.6 300.6 135.6L299.92 135.84C297.333 137.227 294.987 139.067 292.88 141.36C290.773 143.653 289.72 145.187 289.72 145.96C289.72 146.04 289.76 146.08 289.84 146.08L290.08 146C291.44 145.2 292.973 143.973 294.68 142.32C296.413 140.667 297.8 139.2 298.84 137.92L300.36 136.04Z" fill="#E34E33"/>
<path d="M221.52 279C221.307 279.187 220.947 279.48 220.44 279.88C219.453 280.6 218.773 281.28 218.4 281.92C217.147 284.32 216.52 287.067 216.52 290.16C216.52 293.253 216.987 295.76 217.92 297.68C217.92 297.76 217.827 297.8 217.64 297.8C216.413 297.8 215.36 297.32 214.48 296.36C212.88 294.573 212.08 292.227 212.08 289.32C212.08 288.28 212.333 287 212.84 285.48C212.867 285.373 212.88 285.293 212.88 285.24C212.88 285.187 212.853 285.16 212.8 285.16C212.773 285.16 212.693 285.227 212.56 285.36C212.453 285.36 212.32 285.44 212.16 285.6C212.16 285.547 211.773 285.813 211 286.4C210.227 286.987 209.227 287.733 208 288.64C206.8 289.547 205.533 290.453 204.2 291.36C202.867 292.293 201.547 293.08 200.24 293.72C198.907 294.387 197.933 294.72 197.32 294.72C196.707 294.72 196 294.467 195.2 293.96C194.4 293.48 194 293.16 194 293C194 292.787 194.187 292.547 194.56 292.28C198.667 289.613 200.947 287.947 201.4 287.28C201.613 287.147 201.773 287.08 201.88 287.08C201.987 287.08 202.04 287.12 202.04 287.2C202.04 287.467 201.693 287.947 201 288.64C200.28 289.307 199.533 289.92 198.76 290.48C198.627 290.613 198.56 290.72 198.56 290.8C198.56 290.853 198.587 290.88 198.64 290.88C198.693 290.88 198.8 290.84 198.96 290.76C205.76 286.573 210.16 283.747 212.16 282.28C212.987 281.88 213.48 281.36 213.64 280.72C213.747 280.24 214.08 279.333 214.64 278C215.2 276.667 215.747 275.48 216.28 274.44C217.827 271.533 219.48 269.147 221.24 267.28C221.507 267.067 221.64 266.92 221.64 266.84C221.64 266.76 221.6 266.72 221.52 266.72C220.773 266.72 219.253 267.187 216.96 268.12C214.667 269.027 212.173 270.307 209.48 271.96C206.813 273.613 204.933 275.24 203.84 276.84C203.627 277.027 203.453 277.12 203.32 277.12C203.213 277.12 203.16 277.053 203.16 276.92C203.16 275.96 203.76 274.747 204.96 273.28C206.16 271.813 207.653 270.387 209.44 269C211.253 267.613 213.373 266.427 215.8 265.44C218.253 264.453 220.573 263.96 222.76 263.96C223.88 263.96 224.707 264.373 225.24 265.2C225.427 265.52 225.52 265.867 225.52 266.24C225.52 266.613 225.187 267.307 224.52 268.32C222.253 271.76 220.88 274.32 220.4 276C220.347 276.133 220.32 276.253 220.32 276.36C220.32 276.467 220.347 276.52 220.4 276.52C220.453 276.52 220.573 276.453 220.76 276.32C229.64 269.84 234.733 265.853 236.04 264.36C236.227 264.093 236.4 263.96 236.56 263.96C236.747 263.96 236.907 264 237.04 264.08C237.6 264.64 237.88 265 237.88 265.16C237.88 265.32 237.773 265.507 237.56 265.72C231.4 270.973 226.053 275.4 221.52 279Z" fill="#E34E33"/>
<path d="M46.8 157.84L46.28 157.92C41.4267 158.613 37.4933 159.347 34.48 160.12C31.4933 160.893 28.9467 161.28 26.84 161.28C25.3733 161.28 24.32 160.987 23.68 160.4C23.12 159.867 22.7733 159.293 22.64 158.68C22.64 158.413 22.88 158.093 23.36 157.72C25.4933 156.44 27.0667 155.8 28.08 155.8C28.1867 155.8 28.24 155.84 28.24 155.92C28.24 155.973 28.2 156.08 28.12 156.24C28.12 156.32 28.16 156.36 28.24 156.36C28.9067 156.147 29.6267 155.933 30.4 155.72C31.2 155.507 32.9467 155.213 35.64 154.84C38.36 154.44 41.0133 154.24 43.6 154.24C46.2133 154.24 47.84 154.48 48.48 154.96L51.16 156.64C51.4533 156.853 51.6 157.093 51.6 157.36C51.6 157.6 51.4 157.787 51 157.92C50.6 158.053 50.0667 158.267 49.4 158.56C48.7333 158.827 47.3733 159.48 45.32 160.52C43.2933 161.533 41.2533 162.653 39.2 163.88C37.1733 165.08 34.7467 166.693 31.92 168.72C29.0933 170.72 26.4133 172.84 23.88 175.08C23.2667 175.587 22.96 175.893 22.96 176C22.96 176.107 22.9867 176.16 23.04 176.16C23.0933 176.16 23.2533 176.133 23.52 176.08C26.48 175.093 29.32 174.6 32.04 174.6C34.76 174.6 37.08 175.2 39 176.4C40.92 177.573 41.88 178.987 41.88 180.64C41.88 180.8 41.8133 180.88 41.68 180.88L41.36 180.8C41.2533 180.507 40.1467 180.253 38.04 180.04C35.96 179.853 33.9867 179.76 32.12 179.76C25.96 179.76 21.4667 180.213 18.64 181.12C18.4533 181.2 18.24 181.24 18 181.24C17.4133 181.24 16.96 180.947 16.64 180.36C16.0267 180.227 15.72 179.84 15.72 179.2C15.72 177.627 17.4533 175.453 20.92 172.68C24.36 169.88 28.4533 167.16 33.2 164.52C37.9733 161.88 42.44 159.773 46.6 158.2C46.84 158.067 46.96 157.973 46.96 157.92C46.96 157.867 46.9067 157.84 46.8 157.84Z" fill="#E34E33"/>
<path d="M144.36 15.52L146.4 15.48C149.04 15.48 150.96 15.8533 152.16 16.6C152.747 16.7867 153.04 17.0267 153.04 17.32C153.04 17.5333 152.773 17.68 152.24 17.76C151.733 17.84 149.933 18.0533 146.84 18.4C143.773 18.72 141.667 18.9067 140.52 18.96C140.013 18.9867 138.84 19.8667 137 21.6C135.187 23.3333 133.453 25.24 131.8 27.32C130.147 29.4 129.32 30.8533 129.32 31.68C129.32 31.8133 129.387 31.9333 129.52 32.04C129.653 32.12 129.813 32.16 130 32.16C130.213 32.16 130.533 32.08 130.96 31.92C136.027 28.9333 140.947 25.6667 145.72 22.12C145.96 22.3067 146.08 22.5333 146.08 22.8C146.08 23.0667 145.947 23.3333 145.68 23.6C145.413 23.84 145.013 24.2 144.48 24.68C143.973 25.16 143.013 26.0267 141.6 27.28C140.187 28.5333 138.853 29.6533 137.6 30.64C134.24 33.36 131.893 34.9333 130.56 35.36C130.08 35.4933 129.507 35.56 128.84 35.56C128.2 35.56 127.6 35.2267 127.04 34.56C126.507 33.8933 126.24 32.9867 126.24 31.84C126.24 30.6933 126.973 29.04 128.44 26.88C129.933 24.72 131.96 22.5067 134.52 20.24C134.76 20.0533 134.88 19.88 134.88 19.72C134.88 19.56 134.6 19.48 134.04 19.48L131.52 19.56C127.973 19.56 126.147 19.16 126.04 18.36C125.213 18.2 124.8 17.96 124.8 17.64C124.8 17.5333 124.853 17.48 124.96 17.48C125.067 17.4533 125.16 17.44 125.24 17.44C125.32 17.4133 125.453 17.3867 125.64 17.36C125.827 17.3333 127.293 17.12 130.04 16.72C132.813 16.32 135.96 15.9867 139.48 15.72L142.24 12.04C142.4 11.72 142.96 11.56 143.92 11.56C144.88 11.56 145.36 11.76 145.36 12.16C145.36 12.2933 145.253 12.5333 145.04 12.88L144.04 14.28C143.907 14.7067 143.827 15.0267 143.8 15.24C143.8 15.4267 143.987 15.52 144.36 15.52Z" fill="#E34E33"/>
</svg>
